<svg width="24" height="24" viewBox="0 0 24 24" fill="none" xmlns="http://www.w3.org/2000/svg">
<g clip-path="url(#clip0_665_2)">
<path d="M14.297 0.046875L16.7455 0.063C16.7917 0.0988125 16.829 0.12225 16.8685 0.139875C17.3124 0.3405 17.7935 0.484125 18.1934 0.75075C19.3529 1.52138 20.4852 2.33344 21.6168 3.14513C22.1427 3.52144 22.6612 3.91331 23.146 4.3395C23.5064 4.656 23.6682 5.10506 23.6692 5.58394L23.6682 20.6535C23.6677 20.8637 23.6317 21.0799 23.5732 21.282C23.3073 22.2034 22.7176 22.8339 21.7897 23.0801C21.3003 23.2097 20.7834 23.25 20.2758 23.2918C19.484 23.3576 18.6894 23.3899 17.896 23.4375L16.3953 23.5312L13.9923 23.6726L12.515 23.7649L10.0885 23.9055L8.83454 23.9569C8.79423 23.9589 8.75692 24.0154 8.71885 24.0469C7.76448 24.0469 6.81086 24.0469 5.84842 24.0315C5.80229 23.9949 5.76723 23.9655 5.72617 23.9539C5.14454 23.7853 4.65686 23.4639 4.28186 22.9973C3.76248 22.3521 3.26898 21.687 2.76948 21.0264C2.15561 20.2147 1.52579 19.4151 0.945668 18.5801C0.604686 18.0923 0.422051 17.5113 0.422543 16.9161C0.420908 12.4654 0.421471 8.01469 0.424231 3.564C0.424231 3.43575 0.446731 3.30619 0.468856 3.17869C0.701731 1.80844 1.71611 1.07737 2.92248 0.941812C3.54873 0.8715 4.17929 0.84 4.80854 0.798375L6.47167 0.702375L7.1866 0.6555L9.34285 0.4695L10.5382 0.37575L12.518 0.235125L14.1811 0.136875C14.2216 0.134063 14.2589 0.078375 14.297 0.046875ZM4.86479 21.4095C4.96454 21.5391 5.07573 21.6621 5.16292 21.7999C5.58554 22.4612 6.19136 22.7014 6.96104 22.6502L12.1752 22.3397L18.0432 21.9851L20.9649 21.7969C21.8307 21.7273 22.2489 21.2593 22.2657 20.3906V20.2031L22.2723 5.97881C22.273 5.55037 22.1251 5.25075 21.7824 5.01131L17.6529 2.10131C16.9885 1.61794 16.2834 1.39237 15.4666 1.45687L10.8421 1.79887L6.00667 2.1555L2.97161 2.39213C2.35848 2.44838 1.97842 2.82338 1.86854 3.42488C1.84183 3.57842 1.82884 3.73403 1.82973 3.88988L1.81717 16.3102C1.81286 17.124 2.06186 17.8009 2.54898 18.4234L4.86479 21.4095Z" fill="white"/>
<path d="M4.8537 21.3972L2.54876 18.4234C2.06164 17.8009 1.81264 17.1242 1.81695 16.3105L1.82951 3.89009C1.82951 3.73484 1.84114 3.57734 1.86832 3.42509C1.9782 2.82378 2.35826 2.44878 2.97139 2.39234L6.00645 2.15572L10.8421 1.79909L15.4664 1.45709C16.2831 1.39259 16.9883 1.61815 17.6526 2.10153C19.0143 3.09247 20.4014 4.04834 21.7821 5.01153C22.1249 5.25097 22.2728 5.55059 22.2721 5.97903L22.2655 20.2041V20.3916C22.2486 21.2595 21.8305 21.7275 20.9646 21.7971C19.9921 21.8755 19.0173 21.9261 18.043 21.9853L12.175 22.3397L6.96083 22.6504C6.19114 22.7016 5.58532 22.4614 5.1627 21.8001C5.07551 21.6623 4.96432 21.5393 4.8537 21.3972ZM6.05482 12.7737V19.0527L6.05632 20.2238C6.06645 20.749 6.3237 21.0105 6.8487 21.0405C6.98051 21.0478 7.11382 21.0433 7.24639 21.0353L11.6418 20.7762L20.0352 20.2963C20.5583 20.2671 20.8 20.0378 20.849 19.5193C20.8585 19.4262 20.8555 19.3318 20.8555 19.2381L20.8563 7.14865C20.8563 7.07834 20.8585 7.00803 20.8542 6.93772C20.8227 6.45659 20.6161 6.26028 20.138 6.28578L15.8121 6.53497C13.786 6.65284 11.7598 6.77146 9.73376 6.89084L6.69495 7.07328C6.30758 7.09803 6.13245 7.26509 6.07395 7.64384C6.0601 7.74429 6.05396 7.84564 6.05558 7.94703L6.05482 12.7737ZM16.7746 2.88734C16.4076 2.68822 16.0092 2.62222 15.599 2.6449C14.9684 2.6794 14.3378 2.73134 13.7071 2.7769L4.71664 3.43015C4.44495 3.44984 4.17176 3.46953 3.90364 3.51809C3.81364 3.53422 3.70001 3.62497 3.67226 3.70709C3.65164 3.76484 3.74257 3.88147 3.80914 3.94522C3.93232 4.06297 4.07426 4.16178 4.20851 4.26809C4.52707 4.51934 4.86607 4.74847 5.15839 5.02615C5.71282 5.55265 6.35801 5.67434 7.09714 5.6209L12.9162 5.25603L19.1806 4.88028C19.2378 4.87747 19.295 4.85984 19.4208 4.8364C19.3058 4.71697 19.2391 4.62547 19.1521 4.56097C18.8452 4.33431 18.5353 4.11167 18.2226 3.89309C17.7422 3.55459 17.2595 3.21934 16.7746 2.88734Z" fill="black"/>
<path d="M6.05492 12.7501L6.05567 7.94695C6.05567 7.8457 6.05867 7.74333 6.07404 7.64377C6.13254 7.26502 6.30767 7.09814 6.69504 7.0732L9.73386 6.89077L15.8122 6.53489L20.1379 6.2857C20.6162 6.2602 20.8228 6.45708 20.8541 6.93764C20.8586 7.00795 20.8564 7.07827 20.8564 7.14858L20.8556 19.238L20.849 19.5193C20.8001 20.0377 20.5584 20.267 20.0353 20.2963L11.6419 20.7761L7.24648 21.0352L6.84898 21.0405C6.32379 21.0105 6.06654 20.7489 6.05642 20.2245L6.05492 19.0526V12.7501ZM14.636 12.7625L12.2233 9.08658C12.1391 8.95833 12.0564 8.91595 11.9012 8.93283L10.8727 9.0022L8.98085 9.14077C8.51585 9.18333 8.2346 9.62058 8.36342 10.074L9.36542 10.1596V18.2771L8.68292 18.4696C8.38029 18.5589 8.25073 18.8139 8.35254 19.1398L10.6603 19.0072L11.5693 18.9326C11.9612 18.8681 12.1721 18.6279 12.2248 18.236L10.9629 17.9482V11.8426L11.0567 11.9739L13.9569 16.5024C14.3832 17.1637 14.8211 17.8176 15.2702 18.4636C15.5902 18.923 16.062 19.0636 16.5922 18.9493C16.9241 18.8784 17.2427 18.7436 17.5678 18.6388C17.7371 18.5838 17.7949 18.4828 17.7941 18.293L17.7885 9.94927C17.7885 9.46158 17.7885 9.46158 18.2709 9.36427C18.7588 9.26602 18.881 9.0712 18.7697 8.54977L15.854 8.72695C15.5368 8.74964 15.2966 9.01477 15.2484 9.3232C15.2248 9.47189 15.2555 9.55383 15.4335 9.56414L16.3162 9.66164V15.3202C15.7571 14.4673 15.197 13.615 14.636 12.7633V12.7625ZM16.7906 2.89533C17.2692 3.22585 17.7465 3.55835 18.2224 3.89283C18.5351 4.11146 18.845 4.33417 19.152 4.56089C19.239 4.62539 19.3057 4.71689 19.4207 4.83633L19.1805 4.8802L12.9161 5.25595L7.09704 5.62083C6.35792 5.67427 5.71273 5.55258 5.15829 5.02608C4.86598 4.74858 4.52698 4.51927 4.20823 4.26802C4.07417 4.1617 3.93223 4.06289 3.80904 3.94495C3.74248 3.8812 3.65154 3.76495 3.67217 3.70683C3.69992 3.62489 3.81429 3.53414 3.90354 3.51802C4.17167 3.46964 4.44485 3.44977 4.71654 3.43008L13.7072 2.77683L15.599 2.64483C16.0091 2.62233 16.4075 2.68795 16.7906 2.89533Z" fill="white"/>
<path d="M14.6462 12.7764L16.3163 15.3202V9.66149L15.4337 9.56399C15.2556 9.55387 15.2249 9.47193 15.2483 9.32324C15.2967 9.0148 15.537 8.74968 15.8539 8.72699L18.7697 8.5498C18.8811 9.07105 18.7589 9.26606 18.271 9.36412C17.7884 9.46087 17.7884 9.46087 17.7884 9.9493L17.7942 18.2931C17.7949 18.4828 17.7372 18.5839 17.5679 18.6388L16.5923 18.9493C16.062 19.0629 15.5903 18.9231 15.2704 18.4637C14.8215 17.8175 14.3837 17.1636 13.9572 16.5024L11.0565 11.9737C11.0361 11.9415 11.0127 11.9115 10.9628 11.8427V17.9482L12.2249 18.2361C12.1722 18.6279 11.9612 18.8679 11.5694 18.9326C11.2705 18.9816 10.9637 18.9889 10.6604 19.0072L8.35261 19.1398C8.2508 18.8139 8.38036 18.5589 8.68298 18.4697L9.36548 18.2771V10.1597L8.36348 10.074C8.23467 9.62062 8.51592 9.18337 8.98092 9.1408C9.61017 9.08212 10.2422 9.0463 10.8728 9.00243C11.2155 8.97899 11.5598 8.97018 11.9012 8.93287C12.0565 8.91599 12.1394 8.95837 12.2234 9.08662L14.6462 12.7764Z" fill="black"/>
</g>
<defs>
<clipPath id="clip0_665_2">
<rect width="24" height="24" fill="white"/>
</clipPath>
</defs>
</svg>
